<svg width="43" height="44" viewBox="0 0 43 44" fill="none" xmlns="http://www.w3.org/2000/svg">
<circle cx="21.5" cy="22" r="21.5" fill="#1D37AF"/>
<path d="M20.1048 29.0092C21.8654 29.0092 23.141 28.4796 23.9318 27.4202C24.7375 26.346 25.1702 24.4735 25.2299 21.8028V21.5342C25.2299 18.8486 24.8121 16.9239 23.9766 15.7602C23.156 14.5964 21.8281 14.0145 19.9929 14.0145C16.7851 14.0145 15.1812 16.5509 15.1812 21.6238C15.1812 24.0856 15.5765 25.9357 16.3673 27.174C17.173 28.3975 18.4188 29.0092 20.1048 29.0092ZM18.0234 34.4476C14.9648 34.4476 12.5627 33.3137 10.817 31.0458C9.08629 28.778 8.22092 25.6224 8.22092 21.579C8.22092 17.4312 9.12359 14.2234 10.9289 11.9555C12.7492 9.68768 15.2856 8.55375 18.5382 8.55375C20.2988 8.55375 21.746 8.86707 22.8799 9.49371C24.0288 10.1204 24.9762 11.0603 25.7222 12.3136H26.0579C26.416 10.9111 26.9158 9.79958 27.5574 8.97897H33.1972C32.7197 10.4262 32.3318 12.0898 32.0334 13.9697C31.7499 15.8348 31.6082 17.5431 31.6082 19.0948V26.0774C31.6082 27.838 32.2348 28.7183 33.4881 28.7183C33.9656 28.7183 34.4057 28.6437 34.8086 28.4945V33.8657C34.5698 34.0149 34.1073 34.1492 33.421 34.2686C32.7496 34.3879 32.1901 34.4476 31.7425 34.4476C30.0714 34.4476 28.7958 34.1641 27.9155 33.5972C27.0352 33.0153 26.3414 32.0529 25.8341 30.7101H25.3641C23.7229 33.2018 21.276 34.4476 18.0234 34.4476Z" fill="#BBF41C"/>
</svg>
